<mxfile host="app.diagrams.net" modified="2022-06-22T18:43:02.738Z" agent="5.0 (Windows NT 10.0; Win64; x64) AppleWebKit/537.36 (KHTML, like Gecko) Chrome/102.0.0.0 Safari/537.36" etag="Ja_ygdIsDlEM2GyIz_BY" version="20.0.3" type="github">
  <diagram name="Page-1" id="f1b7ffb7-ca1e-a977-7cf5-a751b3c06c05">
    <mxGraphModel dx="2062" dy="1065" grid="1" gridSize="10" guides="1" tooltips="1" connect="1" arrows="1" fold="1" page="1" pageScale="1" pageWidth="826" pageHeight="1169" background="#ffffff" math="0" shadow="0">
      <root>
        <mxCell id="0" />
        <mxCell id="1" parent="0" />
        <mxCell id="35" value="" style="verticalLabelPosition=bottom;verticalAlign=top;strokeWidth=1;shape=mxgraph.mockup.graphics.iconGrid;strokeColor=#CCCCCC;gridSize=1,1;" parent="1" vertex="1">
          <mxGeometry x="100" y="1370" width="360" height="200" as="geometry" />
        </mxCell>
        <mxCell id="36" value="Article&#xa;Picture" style="text;spacingTop=-5;align=center;verticalAlign=middle;fontSize=36;fontColor=#CCCCCC" parent="1" vertex="1">
          <mxGeometry x="100" y="1370" width="360" height="200" as="geometry" />
        </mxCell>
        <mxCell id="43" value="" style="verticalLabelPosition=bottom;verticalAlign=top;strokeWidth=1;shape=mxgraph.mockup.misc.rating;strokeColor=#999999;fillColor=#ffff00;emptyFillColor=#ffffff;grade=4;ratingScale=5;ratingStyle=star;" parent="1" vertex="1">
          <mxGeometry x="510.0000000000001" y="1584.9999999999998" width="77.5" height="10" as="geometry" />
        </mxCell>
        <mxCell id="44" value="Rate this article" style="text;spacingTop=-5;" parent="1" vertex="1">
          <mxGeometry x="410.00000000000017" y="1579.9999999999998" width="30" height="20" as="geometry" />
        </mxCell>
        <mxCell id="49" value="Tags: Tag1 Tag2 Tag3 Tag4" style="text;spacingTop=-5;" parent="1" vertex="1">
          <mxGeometry x="20" y="1579.9999999999998" width="210" height="20" as="geometry" />
        </mxCell>
        <mxCell id="WXDcBMWHM1SECilTtzHo-61" value="Window Title" style="strokeWidth=1;shadow=0;dashed=0;align=center;html=1;shape=mxgraph.mockup.containers.window;align=left;verticalAlign=top;spacingLeft=8;strokeColor2=#008cff;strokeColor3=#c4c4c4;fontColor=#666666;mainText=;fontSize=17;labelBackgroundColor=none;" parent="1" vertex="1">
          <mxGeometry x="30" y="510" width="750" height="480" as="geometry" />
        </mxCell>
        <mxCell id="WXDcBMWHM1SECilTtzHo-62" value="" style="strokeWidth=1;shadow=0;dashed=0;align=center;html=1;shape=mxgraph.mockup.containers.marginRect2;rectMarginTop=32;strokeColor=#666666;gradientColor=none;" parent="1" vertex="1">
          <mxGeometry x="30" y="540" width="750" height="450" as="geometry" />
        </mxCell>
        <mxCell id="WXDcBMWHM1SECilTtzHo-63" value="Main Window" style="strokeColor=inherit;fillColor=inherit;gradientColor=inherit;strokeWidth=1;shadow=0;dashed=0;align=center;html=1;shape=mxgraph.mockup.containers.rrect;rSize=0;fontSize=17;fontColor=#666666;gradientColor=none;" parent="WXDcBMWHM1SECilTtzHo-62" vertex="1">
          <mxGeometry width="110" height="25" relative="1" as="geometry">
            <mxPoint x="10" as="offset" />
          </mxGeometry>
        </mxCell>
        <object label="Hapic" id="WXDcBMWHM1SECilTtzHo-64">
          <mxCell style="strokeWidth=1;shadow=0;dashed=0;align=center;html=1;shape=mxgraph.mockup.containers.rrect;rSize=0;fontSize=17;fontColor=#ffffff;strokeColor=#008cff;fillColor=#008cff;" parent="WXDcBMWHM1SECilTtzHo-62" vertex="1">
            <mxGeometry width="100" height="25" relative="1" as="geometry">
              <mxPoint x="130" y="2" as="offset" />
            </mxGeometry>
          </mxCell>
        </object>
        <mxCell id="WXDcBMWHM1SECilTtzHo-66" value="" style="strokeWidth=1;shadow=0;dashed=0;align=center;html=1;shape=mxgraph.mockup.containers.topButton;rSize=5;strokeColor=#008cff;fillColor=#008cff;gradientColor=none;resizeWidth=1;movable=0;deletable=1;" parent="WXDcBMWHM1SECilTtzHo-62" vertex="1">
          <mxGeometry width="750" height="7" relative="1" as="geometry">
            <mxPoint y="25" as="offset" />
          </mxGeometry>
        </mxCell>
        <mxCell id="jeptRtYTHibSp9vcDeZW-49" value="" style="strokeWidth=1;shadow=0;dashed=0;align=center;html=1;shape=mxgraph.mockup.forms.rrect;rSize=0;strokeColor=#999999;fillColor=#ffffff;recursiveResize=0;" parent="WXDcBMWHM1SECilTtzHo-62" vertex="1">
          <mxGeometry x="440" y="90" width="220" height="140" as="geometry" />
        </mxCell>
        <mxCell id="jeptRtYTHibSp9vcDeZW-50" value="&lt;font style=&quot;font-size: 22px;&quot;&gt;Haptic Setting 1&lt;/font&gt;" style="shape=ellipse;rSize=0;fillColor=#eeeeee;strokeColor=#999999;gradientColor=#cccccc;html=1;align=left;spacingLeft=4;fontSize=22;fontColor=#666666;labelPosition=right;" parent="jeptRtYTHibSp9vcDeZW-49" vertex="1">
          <mxGeometry x="8" y="8.4375" width="15" height="16.875" as="geometry" />
        </mxCell>
        <mxCell id="jeptRtYTHibSp9vcDeZW-51" value="Haptic&amp;nbsp;Setting 2" style="shape=ellipse;rSize=0;fillColor=#eeeeee;strokeColor=#999999;gradientColor=#cccccc;html=1;align=left;spacingLeft=4;fontSize=22;fontColor=#666666;labelPosition=right;" parent="jeptRtYTHibSp9vcDeZW-49" vertex="1">
          <mxGeometry x="8" y="42.1875" width="15" height="16.875" as="geometry" />
        </mxCell>
        <mxCell id="jeptRtYTHibSp9vcDeZW-52" value="&lt;span style=&quot;color: rgb(102, 102, 102); font-size: 22px;&quot;&gt;Haptic&amp;nbsp;&lt;/span&gt;Setting 3" style="shape=ellipse;rSize=0;fillColor=#aaaaaa;strokeColor=#444444;gradientColor=#666666;html=1;align=left;spacingLeft=4;fontSize=22;fontColor=#008cff;labelPosition=right;" parent="jeptRtYTHibSp9vcDeZW-49" vertex="1">
          <mxGeometry x="8" y="75.9375" width="15" height="16.875" as="geometry" />
        </mxCell>
        <mxCell id="jeptRtYTHibSp9vcDeZW-53" value="" style="shape=ellipse;fillColor=#444444;strokeColor=none;html=1;" parent="jeptRtYTHibSp9vcDeZW-52" vertex="1">
          <mxGeometry x="3" y="3.3750000000000004" width="9" height="10.125" as="geometry" />
        </mxCell>
        <mxCell id="jeptRtYTHibSp9vcDeZW-54" value="Haptic&amp;nbsp;Setting 4" style="shape=ellipse;rSize=0;fillColor=#eeeeee;strokeColor=#999999;gradientColor=#cccccc;html=1;align=left;spacingLeft=4;fontSize=22;fontColor=#666666;labelPosition=right;" parent="jeptRtYTHibSp9vcDeZW-49" vertex="1">
          <mxGeometry x="8" y="109.6875" width="15" height="16.875" as="geometry" />
        </mxCell>
        <mxCell id="jeptRtYTHibSp9vcDeZW-67" value="" style="verticalLabelPosition=bottom;shadow=0;dashed=0;align=center;html=1;verticalAlign=top;strokeWidth=1;shape=mxgraph.mockup.forms.horSlider;strokeColor=#999999;sliderStyle=basic;sliderPos=26.957;handleStyle=circle;fillColor2=#ddeeff;" parent="WXDcBMWHM1SECilTtzHo-62" vertex="1">
          <mxGeometry x="430" y="320" width="230" height="32.14" as="geometry" />
        </mxCell>
        <mxCell id="jeptRtYTHibSp9vcDeZW-68" value="Single Pulse" style="strokeWidth=1;shadow=0;dashed=0;align=center;html=1;shape=mxgraph.mockup.buttons.button;strokeColor=#666666;fontColor=#ffffff;mainText=;buttonStyle=round;fontSize=17;fontStyle=1;fillColor=#008cff;whiteSpace=wrap;" parent="WXDcBMWHM1SECilTtzHo-62" vertex="1">
          <mxGeometry x="130" y="90" width="190" height="80" as="geometry" />
        </mxCell>
        <mxCell id="jeptRtYTHibSp9vcDeZW-69" value="Continuous Pulse" style="strokeWidth=1;shadow=0;dashed=0;align=center;html=1;shape=mxgraph.mockup.buttons.button;strokeColor=#666666;fontColor=#ffffff;mainText=;buttonStyle=round;fontSize=17;fontStyle=1;fillColor=#008cff;whiteSpace=wrap;" parent="WXDcBMWHM1SECilTtzHo-62" vertex="1">
          <mxGeometry x="130" y="210" width="190" height="81.79" as="geometry" />
        </mxCell>
        <mxCell id="jeptRtYTHibSp9vcDeZW-70" value="Stop" style="strokeWidth=1;shadow=0;dashed=0;align=center;html=1;shape=mxgraph.mockup.buttons.button;strokeColor=#666666;fontColor=#ffffff;mainText=;buttonStyle=round;fontSize=17;fontStyle=1;fillColor=#008cff;whiteSpace=wrap;" parent="WXDcBMWHM1SECilTtzHo-62" vertex="1">
          <mxGeometry x="130" y="330" width="190" height="80" as="geometry" />
        </mxCell>
        <mxCell id="hwfRlB-UBgL8vLuYCy4z-49" value="Pulse Repeat Time (ms)" style="text;html=1;strokeColor=none;fillColor=none;align=center;verticalAlign=middle;whiteSpace=wrap;rounded=0;fontSize=22;" vertex="1" parent="WXDcBMWHM1SECilTtzHo-62">
          <mxGeometry x="420" y="270" width="250" height="30" as="geometry" />
        </mxCell>
        <mxCell id="hwfRlB-UBgL8vLuYCy4z-50" value="200" style="text;html=1;strokeColor=none;fillColor=none;align=center;verticalAlign=middle;whiteSpace=wrap;rounded=0;fontSize=22;" vertex="1" parent="WXDcBMWHM1SECilTtzHo-62">
          <mxGeometry x="515" y="360" width="60" height="30" as="geometry" />
        </mxCell>
      </root>
    </mxGraphModel>
  </diagram>
</mxfile>
